# Blender v2.93.4 OBJ File: 'HUMAN_HAND_TEST.blend'
# www.blender.org
mtllib STICKS_S_2.mtl
o Aset_tree_debris_T_rfkkwaa_095_LOD1
v -0.697656 6.819903 2.672784
v -0.615446 6.997677 2.794013
v -0.665573 6.825635 2.653737
v -0.683989 6.749327 2.598051
v -0.743164 6.574398 2.597398
v -0.722133 6.763505 2.623175
v -0.692541 6.584076 2.595769
v -0.719783 6.576484 2.582194
v -0.659365 6.950593 2.788494
v -0.693625 6.815137 2.692492
v -0.659163 6.821873 2.718693
v -0.631972 6.816196 2.671986
v -0.631714 6.805657 2.689771
v -0.596279 6.953083 2.801620
v -0.708896 6.587529 2.632549
v -0.661070 6.699338 2.630722
v -0.700373 6.708992 2.649185
v -0.640489 6.814773 2.608169
v -0.628020 6.935493 2.543088
v -0.660888 6.922618 2.573022
v -0.677394 6.937553 2.541857
v -0.692898 6.840330 2.603997
v -0.648646 6.819137 2.583227
v -0.745796 6.439419 2.620353
v -0.735415 6.618834 2.619990
v -0.776228 6.449407 2.603459
v -0.719008 6.445518 2.607938
v -0.595087 6.964908 2.792677
v -0.624987 6.952190 2.818442
v -0.747393 6.443742 2.563467
v -0.777654 6.430617 2.575017
v -0.783194 6.303007 2.563213
v -0.749151 6.318979 2.520088
v -0.793123 6.271959 2.520376
v -0.778452 6.334748 2.504056
v -0.807733 6.327320 2.526991
v -0.657386 6.934053 2.522952
v -0.652130 7.070307 2.535830
v -0.626516 7.084279 2.546208
v -0.611753 7.056380 2.524939
v -0.640867 7.064533 2.509967
v -0.600387 7.040529 2.912452
v -0.576291 7.054992 2.895513
v -0.594667 7.084612 2.900774
v -0.646517 6.989887 2.804955
v -0.621633 7.059131 2.897486
v -0.636933 6.749525 2.618479
v -0.713809 6.445646 2.589667
v -0.753653 6.294987 2.534540
vt 0.096325 0.767949
vt 0.118838 0.774741
vt 0.119301 0.772705
vt 0.146163 0.770493
vt 0.126984 0.775306
vt 0.128461 0.777146
vt 0.146064 0.771998
vt 0.144247 0.770996
vt 0.118935 0.770627
vt 0.116585 0.768389
vt 0.101860 0.766674
vt 0.118313 0.772614
vt 0.118637 0.770475
vt 0.099780 0.765465
vt 0.131435 0.772102
vt 0.130648 0.770699
vt 0.142873 0.767625
vt 0.111860 0.789590
vt 0.112675 0.786208
vt 0.121036 0.778672
vt 0.112787 0.789809
vt 0.140960 0.769988
vt 0.158327 0.765104
vt 0.158012 0.763044
vt 0.121732 0.781280
vt 0.099018 0.766806
vt 0.099906 0.763826
vt 0.173778 0.763270
vt 0.178508 0.766208
vt 0.172852 0.770172
vt 0.173131 0.768017
vt 0.119910 0.780099
vt 0.173332 0.767717
vt 0.113413 0.791480
vt 0.100026 0.795497
vt 0.097792 0.795016
vt 0.100915 0.795959
vt 0.101304 0.797763
vt 0.087531 0.758231
vt 0.086307 0.760435
vt 0.083700 0.761062
vt 0.086762 0.760391
vt 0.126675 0.775156
vt 0.157353 0.764460
vt 0.157869 0.766209
vt 0.174950 0.765692
vt 0.097279 0.766593
vt 0.161199 0.767111
vt 0.159800 0.768715
vn -0.4751 0.6351 -0.6091
vn -0.4968 0.1712 -0.8508
vn 0.4484 -0.0109 -0.8937
vn -0.4983 -0.4139 0.7618
vn 0.5208 0.4432 -0.7296
vn 0.3688 -0.6164 0.6957
vn 0.3895 -0.1518 0.9084
vn 0.5516 0.3509 0.7567
vn -0.5913 -0.2116 -0.7782
vn -0.4778 0.0294 0.8780
vn -0.5472 0.1881 -0.8156
vn 0.2541 -0.5223 0.8140
vn 0.8978 -0.2772 -0.3421
vn 0.3007 0.9517 -0.0614
vn -0.6024 0.6207 -0.5017
vn 0.6067 0.4048 -0.6842
vn 0.4111 -0.6196 0.6687
vn -0.5253 -0.2022 0.8266
vn 0.3236 -0.3081 -0.8946
vn 0.4365 0.8993 0.0259
vn -0.6051 -0.0649 -0.7935
vn 0.4346 -0.3922 -0.8107
vn -0.6625 0.4756 0.5788
vn -0.6919 -0.1842 -0.6982
vn -0.8302 0.1819 0.5269
vn 0.6779 -0.0223 0.7348
vn 0.4772 0.6784 -0.5586
vn -0.8936 0.1509 -0.4228
vn 0.3653 -0.7242 0.5849
vn -0.5965 -0.3833 0.7052
vn 0.5016 0.1601 0.8502
vn -0.5389 -0.5389 0.6474
vn -0.3747 0.2825 0.8831
vn 0.9506 0.0028 -0.3104
vn 0.9557 -0.1150 0.2711
vn 0.9074 -0.3336 0.2558
vn 0.2844 -0.8064 0.5185
vn -0.8785 -0.1315 0.4593
vn -0.9822 0.0865 0.1667
vn -0.3388 0.8760 -0.3431
vn -0.4746 0.2413 0.8465
vn -0.9713 0.0895 0.2203
vn 0.3714 -0.3690 -0.8520
vn 0.5375 -0.5068 -0.6739
vn 0.4474 -0.1835 0.8753
vn -0.4034 0.0252 0.9147
vn 0.9817 -0.1674 -0.0904
vn 0.6735 -0.5680 0.4731
vn -0.7239 -0.3471 0.5962
vn -0.9540 0.2978 0.0337
vn 0.5610 -0.1962 -0.8042
vn -0.5435 -0.2872 0.7887
vn 0.4013 -0.5820 0.7072
vn -0.5043 -0.0823 0.8596
vn -0.9989 0.0412 0.0229
vn 0.8977 -0.3757 0.2301
vn 0.9983 -0.0425 -0.0396
vn -0.3954 0.4619 -0.7939
vn 0.8787 -0.3412 0.3339
vn -0.8716 -0.2782 0.4037
vn -0.0024 0.9587 0.2845
vn -0.9300 0.3649 0.0440
vn 0.3982 -0.0079 -0.9173
vn 0.9818 -0.1567 -0.1070
vn 0.5398 -0.3584 -0.7617
vn -0.6146 0.4726 -0.6316
vn 0.6800 0.3974 0.6162
vn 0.8337 0.2768 -0.4779
vn -0.9506 0.2555 -0.1765
vn -0.4352 0.2395 -0.8679
vn -0.5451 0.2272 -0.8070
vn 0.4378 0.0357 -0.8984
vn -0.7918 0.4135 0.4495
vn 0.5580 -0.4461 0.6997
vn -0.6854 0.0143 -0.7280
vn 0.4208 -0.1424 -0.8959
vn -0.3705 0.7887 -0.4906
vn -0.8325 -0.0151 0.5539
vn -0.9496 0.1990 0.2423
vn 0.0824 0.3229 0.9429
vn -0.9635 0.2430 -0.1122
vn 0.8085 -0.0205 0.5881
vn 0.9906 0.0330 -0.1329
vn -0.7120 0.0499 0.7004
vn 0.5682 0.2631 -0.7797
vn -0.4921 0.5206 -0.6978
vn 0.6099 -0.2486 0.7525
vn 0.9017 -0.1202 -0.4154
vn 0.4569 -0.4726 0.7536
vn 0.6658 0.5098 -0.5447
vn -0.5884 0.6793 -0.4386
vn 0.6161 -0.0600 -0.7854
vn 0.5849 0.2590 -0.7686
vn 0.9705 -0.2285 -0.0770
usemtl branches
s off
f 2/1/1 3/2/1 1/3/1
f 5/4/2 6/5/2 4/6/2
f 8/7/3 4/6/3 7/8/3
f 10/9/4 11/10/4 9/11/4
f 12/12/5 3/2/5 2/1/5
f 13/13/6 14/14/6 11/10/6
f 16/15/7 17/16/7 15/17/7
f 19/18/8 20/19/8 18/20/8
f 4/6/9 6/5/9 21/21/9
f 25/22/10 26/23/10 24/24/10
f 4/6/11 8/7/11 5/4/11
f 13/13/12 17/16/12 16/15/12
f 19/18/13 18/20/13 23/25/13
f 12/12/14 18/20/14 3/2/14
f 2/1/15 1/3/15 9/11/15
f 28/26/16 12/12/16 2/1/16
f 14/14/17 29/27/17 11/10/17
f 26/23/18 32/28/18 24/24/18
f 34/29/19 35/30/19 33/31/19
f 18/20/20 22/32/20 3/2/20
f 35/30/21 34/29/21 36/33/21
f 23/25/22 4/6/22 37/34/22
f 20/19/23 21/21/23 22/32/23
f 37/34/24 4/6/24 21/21/24
f 20/19/25 38/35/25 21/21/25
f 39/36/26 20/19/26 19/18/26
f 40/37/27 41/38/27 39/36/27
f 21/21/28 38/35/28 41/38/28
f 42/39/29 29/27/29 14/14/29
f 11/10/30 29/27/30 9/11/30
f 43/40/31 44/41/31 42/39/31
f 9/11/32 29/27/32 42/39/32
f 46/42/33 42/39/33 44/41/33
f 18/20/34 47/43/34 23/25/34
f 27/44/35 48/45/35 15/17/35
f 48/45/36 27/44/36 49/46/36
f 34/29/37 49/46/37 32/28/37
f 6/5/38 17/16/38 10/9/38
f 25/22/39 6/5/39 5/4/39
f 39/36/40 41/38/40 38/35/40
f 38/35/41 20/19/41 39/36/41
f 1/3/42 10/9/42 9/11/42
f 23/25/43 47/43/43 4/6/43
f 34/29/44 33/31/44 49/46/44
f 15/17/45 24/24/45 27/44/45
f 25/22/46 24/24/46 15/17/46
f 13/13/47 28/26/47 14/14/47
f 14/14/48 43/40/48 42/39/48
f 9/11/49 42/39/49 46/42/49
f 9/11/50 46/42/50 45/47/50
f 37/34/51 40/37/51 19/18/51
f 11/10/52 10/9/52 17/16/52
f 17/16/53 13/13/53 11/10/53
f 17/16/54 25/22/54 15/17/54
f 26/23/55 31/48/55 32/28/55
f 16/15/56 47/43/56 13/13/56
f 13/13/57 47/43/57 12/12/57
f 9/11/58 45/47/58 2/1/58
f 7/8/59 47/43/59 16/15/59
f 34/29/60 32/28/60 36/33/60
f 22/32/61 1/3/61 3/2/61
f 6/5/62 1/3/62 22/32/62
f 7/8/63 4/6/63 47/43/63
f 28/26/64 13/13/64 12/12/64
f 19/18/65 23/25/65 37/34/65
f 35/30/66 36/33/66 31/48/66
f 2/1/67 14/14/67 28/26/67
f 43/40/68 14/14/68 2/1/68
f 31/48/69 25/22/69 5/4/69
f 31/48/70 5/4/70 30/49/70
f 30/49/71 5/4/71 8/7/71
f 7/8/72 30/49/72 8/7/72
f 6/5/73 22/32/73 21/21/73
f 24/24/74 32/28/74 49/46/74
f 37/34/75 21/21/75 41/38/75
f 41/38/76 40/37/76 37/34/76
f 2/1/77 45/47/77 46/42/77
f 31/48/78 36/33/78 32/28/78
f 6/5/79 10/9/79 1/3/79
f 18/20/80 20/19/80 22/32/80
f 26/23/81 25/22/81 31/48/81
f 19/18/82 40/37/82 39/36/82
f 12/12/83 47/43/83 18/20/83
f 25/22/84 17/16/84 6/5/84
f 35/30/85 30/49/85 33/31/85
f 35/30/86 31/48/86 30/49/86
f 16/15/87 15/17/87 48/45/87
f 48/45/88 7/8/88 16/15/88
f 27/44/89 24/24/89 49/46/89
f 43/40/90 2/1/90 44/41/90
f 44/41/91 2/1/91 46/42/91
f 7/8/92 48/45/92 30/49/92
f 48/45/93 33/31/93 30/49/93
f 48/45/94 49/46/94 33/31/94
